<?xml version="1.0" encoding="utf-8"?>
<!-- Generator: Adobe Illustrator 22.0.1, SVG Export Plug-In . SVG Version: 6.00 Build 0)  -->
<svg version="1.1" id="Livello_1" xmlns="http://www.w3.org/2000/svg" xmlns:xlink="http://www.w3.org/1999/xlink" x="0px" y="0px"
	 viewBox="0 0 699.4 706.2" style="enable-background:new 0 0 699.4 706.2;" xml:space="preserve">
<style type="text/css">
	.st0{fill:#4285F4;}
</style>
<g transform="translate(0.000000,1280.000000) scale(0.100000,-0.100000)">
	<path id="logoGear" class="st0" d="M3155.3,12615.4c-781.9-85.1-1489.2-430.1-2038.7-994c-540-554.4-867.9-1265.5-935.7-2027.3
		c-13.4-149.1-13.4-449.2,0-598.3C313.7,7500.9,1450.2,6266,2930.7,6007c363.2-64,788.5-64,1152.7,0
		c443.5,77.4,875.5,250.4,1257.8,501.8c338.4,222.7,672.9,548.6,904.2,880.3c328.8,472.2,534.3,1035.1,586.9,1609.6
		c12.4,141.5,12.4,451.1,0,592.6c-96.5,1062.9-694.9,2014.8-1614.4,2569.2c-410,247.6-881.3,403.4-1372.5,455.9
		C3680.1,12633.6,3317.8,12633.6,3155.3,12615.4z M3840.9,12033.1c331.1-43.1,612.8-128.4,904.5-276.1
		c533-269.7,959.5-697.1,1228.3-1231.9l44-89.9l-429.3-429.3c-236.7-236.7-432-428.4-433.9-426.5c-1.8,2.8-9.2,31.2-15.6,64.2
		c-6.4,33-27.5,109.2-47.7,168.8c-284.4,877.9-1226.4,1354.9-2108,1068.7c-161.4-52.3-344-148.6-484.3-254.1
		c-36.7-27.5-437.6-422-894.4-879.7l-827.4-829.2l-6.4,30.3c-3.7,16.5-11,94.5-17.4,172.5c-24.8,331.1,23.8,710.9,134.8,1044.8
		c287.1,858.6,986.1,1530.1,1854.8,1780.5c184.4,52.3,385.3,88.1,593.5,104.6C3428.1,12057.9,3733.6,12047.8,3840.9,12033.1z
		 M3679.1,10245c206.5-39.2,371.8-128.1,517.1-280.1c118.5-122.3,183.5-230.4,230.4-378.5c109.9-347.9,13.4-726.4-248.5-980.7
		c-126.2-122.3-265.7-201.7-440.6-249.5c-106.1-29.6-356.5-29.6-462.6,0c-325,88.9-579.2,322.1-683.4,628
		c-168.2,494.2,90.8,1034.2,585.9,1219.6C3320.7,10257.5,3525.2,10274.7,3679.1,10245z M6258,9464.6c11-145.9,8.3-302.7-10.1-467.8
		c-107.3-1002.6-765-1873.1-1704.3-2256.6c-735.7-300-1556.7-267.9-2271.2,89.9c-527.4,263.3-966.8,702.7-1232.9,1233.8l-44.9,90.8
		l429.3,429.3c236.7,236.7,432,428.4,433.9,426.5c1.8-2.8,9.2-31.2,15.6-64.2c6.4-33,27.5-109.2,47.7-168.8
		c95.4-297.2,272.4-559.6,507.3-755.9c510.9-427.5,1203.5-516.4,1800.7-231.2c106.4,50.5,244,138.5,327.5,208.2
		c30.3,24.8,420.1,411.9,866.8,859.5l811.8,813.6l6.4-30.3C6244.2,9625.2,6252.5,9545.4,6258,9464.6z"/>
</g>
</svg>
